# xmcd
#
# Track frame offsets:
#	150
#	10713
#	24233
#	36073
#
# Disc length: 647 seconds
#
# Revision: 1
# Processed by: cddbd v1.5.1PL2 Copyright (c) Steve Scherf et al.
# Submitted via: audiograbber 1.80
#
DISCID=1d028504
DTITLE=Freddie Steady 5 - Masquerade a Go Go
DYEAR=1900
DGENRE=
TTITLE0=Masquerade A Go Go
TTITLE1=Dangerous Dana
TTITLE2=Narum's Harem
TTITLE3=Do the Midnight Howl
EXTD=
EXTT0=
EXTT1=
EXTT2=
EXTT3=
PLAYORDER=
